<svg enable-background="new 0 0 200 200" viewBox="0 0 200 200" xmlns="http://www.w3.org/2000/svg"><path d="m165.37 180.25c-10.13 2.48-20.38 3.48-30.75 1.38-1.95-.39-4.04-1.6-5.41-3.05-9.21-9.79-18.26-19.74-27.32-29.67-1.17-1.29-2.09-2.8-3.68-4.97-9.89 26.13-28.5 38.7-55.09 39.54-.25-.43-.5-.85-.75-1.28 1.08-.49 2.13-1.07 3.24-1.46 11.09-3.93 21.47-9.22 30.07-17.34 10.62-10.03 16.5-21.88 12.92-37.01-.99-4.2.39-5.47 4.48-4.35 2.17.59 4.31 1.45 6.28 2.54 3.07 1.7 4.66 3.68 2.63 7.7-3.08 6.1-2.59 6.92 2.53 11.64 1.88 1.73 3.79 3.45 5.88 5.35 6.72-4.5 11.43-10.54 14.87-17.47 2-4.02 4.09-4.32 7.29-1.76.35.28.85.43 1.12.77 1.83 2.28 3.62 4.6 5.42 6.9-2.24 1.55-4.34 3.37-6.74 4.6-6.04 3.1-12.22 5.93-19.19 9.28 1.98 1.64 3.51 2.94 5.08 4.19 11.44 9.08 24.55 14.75 38.45 18.84 3.17.93 6.15 2.54 9.22 3.84-.19.59-.37 1.19-.55 1.79z"/><path d="m96.14 40.95c-4.7-7.37-8.91-13.99-13.36-20.98 7.49-1.81 20.09 2.52 22.63 7.77 1.58 3.27 1.55 7.32 2.39 11.76 11.19-1.65 23.32-3.12 35.3-5.38 4.81-.91 8.65-.37 12.13 2.79 3.46 3.14 7.01 6.25 10.06 9.77 2.36 2.72 1.53 5.61-1.69 6.38-9.17 2.21-18.43 4.08-28.09 6.18 3.2-5.35 6.26-10.46 9.32-15.58-.41-.53-.81-1.05-1.22-1.58-9.29.6-18.63.81-27.87 1.88-17.41 2.04-34.72 4.96-52.16 6.62-5.43.52-8.58 1.8-10.65 6.86-1.16 2.84-3.43 5.35-5.6 7.64-2.84 2.99-7.11 3.21-9.29.63-2.53-2.99-1.81-5.88.35-9.03 3.66-5.35 6.81-11.03 10.29-16.5.74-1.16 1.81-2.57 2.97-2.84.73-.17 2.5 1.4 2.77 2.46.94 3.61 3.39 3.52 6.27 3.33 11.72-.78 23.45-1.46 35.45-2.18z"/><path d="m69.93 87.18c0-3.26 0-5.95 0-8.76-4.54.37-9.17-.17-12.99 1.33-3.62 1.42-6.41 4.99-10.1 7.01 3.39-9 6.78-18.01 10.55-28.03 2.39 1.62 7.11 3.17 7.58 5.55.52 2.68-2.79 6.11-4.75 9.8 2.68-.62 5.12-.99 7.38-1.83.79-.3 1.68-1.83 1.59-2.71-.32-3.1-.56-6.37-1.73-9.2-1.44-3.47.06-4.28 2.83-4.11 2.22.14 4.44.82 6.59 1.49 2.76.87 3.77 2.69 2.8 5.63-.49 1.5-.44 3.18-.48 3.54 4.49 1.01 8.42 1.73 12.22 2.88 1 .3 1.6 1.94 2.38 2.97-1.05.66-2.03 1.72-3.17 1.92-3.86.69-7.77 1.07-12.07 1.63-.14 2.97-.28 5.78-.45 9.44 4.24-.64 8.03-1.7 11.8-1.64 2.96.05 5.94 1.36 8.8 2.42.63.24 1.27 1.92 1.03 2.65-.23.68-1.57 1.26-2.49 1.41-16.37 2.74-32.75 5.39-49.12 8.09-4.87.8-10.56-1.99-12.41-6.62 11.42-1.6 22.71-3.22 34.21-4.86z"/><path d="m86.98 121.63c-7.49 1.17-15.2 2.36-22.9 3.58-1 .16-2.17.14-2.95.66-3.41 2.27-5.23 1.7-6.25-2.38-.76-3.06-1.01-6.27-1.88-9.29-1.28-4.47-2.92-8.83-4.56-13.72.5-.03 2.09-.54 3.41-.15 9.04 2.7 17.28-.6 25.47-3.45 5.26-1.83 12.69-1.02 16.09 3.14.85 1.04.72 3.61.06 5.03-1.89 4.05-4.44 7.79-6.38 11.82-.61 1.25-.11 3.04-.11 4.76zm-25.76-1.4c5.56-1.39 10.79-2.6 15.93-4.09.83-.24 1.69-1.66 1.85-2.64.35-2.21.66-4.58.18-6.71-.26-1.15-2.26-2.86-3.29-2.73-5.46.65-10.85 1.81-16.47 2.83.61 4.55 1.17 8.66 1.8 13.34z"/><path d="m97.92 83.49c8.01-1.24 15-2.28 21.98-3.41 7.01-1.14 14.02-2.32 21.01-3.55 6.4-1.13 10.03.17 13.35 5.62-4.61.42-8.82.84-13.04 1.19-4.21.35-8.42.62-11.91.87.16 3.05.46 5.76.42 8.46-.11 6.95-.23 13.9-.66 20.84-.16 2.63-.78 5.41-1.93 7.77-1.45 2.99-4.05 2.97-5.31-.06-1.11-2.67-1.58-5.75-1.64-8.67-.14-6.77.53-13.57.14-20.32-.4-6.8-.92-6.93-7.47-5.54-4.38.93-8.66 1.57-12.64-1.22-.48-.33-.88-.75-2.3-1.98z"/><path d="m55.79 134.06c6.46.39 12.92 1.75 17.32 6.77 1.88 2.14 2.1 6.5 1.69 9.67-.45 3.46-5.15 4.86-7.45 2.21-4.66-5.39-8.67-11.34-12.95-17.06.46-.52.92-1.06 1.39-1.59z"/><path d="m131.63 93.41c7.51 1.25 14.84 3.22 20.88 8.23 3.06 2.54 2.62 6.22 1.12 9.6-1.05 2.37-2.89 3.11-5.07 1.4-2-1.57-3.97-3.25-5.69-5.12-3.95-4.28-7.74-8.7-11.59-13.06.1-.34.23-.7.35-1.05z"/><path d="m143.29 63.92c-7.58 5.55-34.48 7.42-39.74 2.75 1.42-.56 2.5-1.2 3.67-1.43 7.71-1.51 15.42-2.97 23.15-4.36 4.52-.8 8.56.54 12.92 3.04z"/><path d="m93.39 116.6c3.63-4.93 7.11-9.09 9.9-13.66 1.67-2.72 2.61-6.03 3.25-9.2.63-3.1 1.96-3.4 4.36-2.1 5.12 2.77 6.07 5.97 2.08 10.21-4.38 4.65-9.42 8.71-14.35 12.81-1.23 1.02-3.16 1.21-5.24 1.94z"/></svg>