<svg enable-background="new 0 0 200 200" viewBox="0 0 200 200" xmlns="http://www.w3.org/2000/svg"><path d="m109.2 150.25c7.31-4.94 12.48-11.19 16.16-18.59 1.85-3.71 3.81-4.31 6.95-1.79.47.38 1.14.57 1.49 1.02 1.8 2.29 3.53 4.64 5.28 6.97-2.14 1.46-4.15 3.19-6.44 4.34-6.73 3.39-13.58 6.56-20.81 10.02 7.67 6.78 15.96 11.86 24.87 16.07 8.73 4.12 18.71 5.3 28 11.09-8.75 3.38-16.61 3.04-24.4 3.37-6.82.29-12.29-2.15-16.89-7.19-8.55-9.37-17.28-18.57-26.21-28.14-9.79 22.97-28.2 34.01-53.13 34.79-.24-.42-.48-.84-.72-1.26 1.34-.6 2.64-1.3 4.02-1.8 11.54-4.11 22.19-9.77 30.82-18.58 9.65-9.85 14.68-21.28 11.28-35.41-1.01-4.2.31-5.36 4.53-4.26 2.16.57 4.26 1.52 6.27 2.53 3.3 1.66 4.65 3.83 2.57 7.67-1.4 2.59-1.92 5.7-2.53 8.64-.2.96.52 2.15.93 3.18.15.38.65.62.98.92 2.22 2.03 4.44 4.08 6.98 6.41z"/><path d="m97.74 41.73c-6.1-7.27-11.04-13.95-14.44-21.84 6.83-1.77 19.6 2.53 22.07 7.83 1.63 3.5 1.45 7.85 2.19 12.53 7.56-1.02 16.48-2.2 25.4-3.42 2.25-.31 4.49-.66 6.71-1.1 10.51-2.08 20.64 2.69 25.99 12.28 1.67 2.99.79 5.35-2.66 6.14-8.93 2.04-17.91 3.89-27.41 5.92 3.08-5.22 6.1-10.33 9.79-16.57-31.1-.76-59.94 5.95-89.09 8.75-2.53 3.75-5.01 7.89-7.97 11.66-3.03 3.87-7.03 4.55-9.85 2.23-2.85-2.34-2.37-5.98.43-10.02 3.44-4.95 6.29-10.3 9.5-15.42.83-1.32 2.03-2.4 3.05-3.59 1.21 1.24 3.02 2.28 3.51 3.76.92 2.79 2.62 3.3 5.14 3.14 12.22-.77 24.43-1.48 37.64-2.28z"/><path d="m95.07 110.97c4.85-.72 8.61-1.31 12.39-1.84 2.24-.32 4.5-.52 6.75-.81 6.92-.91 6.88-.91 6.42-7.69-.33-4.8-.53-9.6-.79-14.6-6-.39-12.42 1.49-17.58-4.97 5.98-.91 11.2-1.7 16.91-2.57-.26-6.84.76-13.6-2.35-20-1.72-3.54-.63-5.37 3.23-4.93 2.64.3 5.3 1.18 7.76 2.24 2.44 1.05 3.31 2.93 2.76 5.91-.87 4.69-1.02 9.51-1.5 14.66 6.77-.17 12.85-5.14 18.87-.24 1.1.89 2.11 1.9 4.35 3.93-8.47 1.77-15.59 3.27-23.07 4.84v21.44c6.89-1.08 13.76-1.9 20.51-3.28 5.32-1.09 9.48 1.17 13.56 3.77 2.2 1.4 1.64 3.18-.66 3.96-1.82.62-3.82.84-5.76 1.01-16.85 1.48-33.71 2.89-50.55 4.39-4.31.35-7.37-1.67-11.25-5.22z"/><path d="m33.9 90.88c7.01-.96 13.37-1.81 19.74-2.7 3.89-.54 7.78-1.07 11.66-1.68 7.71-1.21 7.77-1.31 5.88-9.11-9.16-.55-17.23 2.06-23.83 8.39 3.39-9.02 6.78-18.05 10.59-28.19 2.51 1.73 7.15 3.29 7.66 5.71.55 2.6-2.79 6.02-4.86 9.89 3.8-1 6.93-1.82 10.95-2.88-.82-3.83-1.12-7.61-2.48-10.97-1.42-3.49-.02-4.31 2.8-4.03 2.51.24 5.19.72 7.34 1.92 1.21.67 1.84 2.95 2.1 4.61.24 1.53-.38 3.19-.44 3.61 4.24 1.33 7.93 2.34 11.49 3.71.87.33 1.3 1.81 1.93 2.76-.97.56-1.88 1.31-2.92 1.63-1.28.4-2.68.47-4.02.64-8.28 1.1-8.46 1.35-6.97 9.92 19.2-.84 19.2-.84 20.35 4.86-5.1.53-10.19.81-15.19 1.63-11.75 1.92-23.49 3.92-35.18 6.21-7.21 1.41-12.87-.08-16.6-5.93z"/><path d="m48.11 99.87c1.55 0 3.14-.22 4.65.04 9.46 1.64 18.18-1.13 26.74-4.53 4.39-1.74 13.56.37 15.88 4.33.56.96.36 3.07-.36 3.94-3.42 4.11-6.15 8.31-6.36 13.98-.04 1.08-2.73 2.67-4.39 2.96-6.52 1.13-13.13 1.74-19.68 2.76-1.14.18-2.49 1.14-3.1 2.14-1.97 3.24-3.88 2.07-4.98-.26-1.19-2.53-1.58-5.45-2.24-8.22-1.36-5.75-.92-12.15-6.9-16.16.25-.34.5-.66.74-.98zm13.21 17.17c3.5-.29 6.51-.56 9.52-.78 8.84-.62 8.77-.62 9.85-9.15.45-3.58-.97-4.82-4.34-4.22-5.32.95-10.63 1.94-16.41 2.99.44 3.65.88 7.17 1.38 11.16z"/><path d="m54.29 135.14c9.45-2.79 21.33 4.41 21.05 12.02-.08 2.16-1.57 5.15-3.31 6.08-1.38.74-4.93-.44-6.13-1.91-4.09-4.95-7.56-10.42-11.61-16.19z"/></svg>