<svg enable-background="new 0 0 400 400" viewBox="0 0 400 400" xmlns="http://www.w3.org/2000/svg"><g fill="#fbfafa"><path d="m37.59 393.81c-.92.31-1.52.05-2-.78-.7-1.2-1.52-2.34-2.47-3.78v4.59c-.55.03-.95.05-1.41.07-.03-.37-.06-.64-.06-.91 0-1.91 0-3.81 0-5.7 1.13-.41 1.77-.03 2.29.91.62 1.11 1.38 2.14 2.31 3.19v-4.2h1.35v6.61z"/><path d="m12.94 393.88v-6.75c1.9.19 3.93-.54 5.37 1.29.8 1.01.78 2.88.03 3.97-1.37 1.97-3.4 1.51-5.4 1.49m1.45-1.22c2.04.12 2.92-.58 2.89-2.21-.03-1.51-.98-2.19-2.89-2z"/><path d="m11.81 393.87h-5.49c.68-2.18 2.47-3.48 3.51-5.45h-3.08v-1.21h5.29c-.71 2.13-2.44 3.48-3.47 5.51.86 0 1.63.04 2.39-.01.79-.05 1.14.21.85 1.16"/><path d="m39.33 393.86v-6.61h3.7v1.07h-2.22v1.52c.68.04 1.34.09 2.07.13v1.07c-.72.05-1.38.09-2.1.14v1.48h2.4v1.19h-3.85z"/><path d="m27.71 388.56c-1.15-.3-2.46-.61-3.1.64-.37.73-.41 1.93-.06 2.67.63 1.35 1.99.93 3.17.68.35.94-.01 1.32-.93 1.46-1.62.25-3.05-.27-3.76-1.48-.73-1.24-.6-3.03.31-4.17.88-1.11 2.71-1.7 4-1.16.32.13.44.74.65 1.12-.1.08-.19.16-.28.24"/><path d="m49.15 387.24v1.07c-.59.02-1.17.05-1.87.08v5.44h-1.48v-5.44h-1.85c-.05-.4-.08-.73-.13-1.15z"/><path d="m20.06 387.21h1.33v6.62h-1.33z"/><path d="m30.68 393.25c-.49.38-.8.79-1.05.76-.32-.05-.6-.45-.9-.7.26-.24.51-.64.8-.67.29-.04.62.3 1.15.61"/></g><path d="m193.28 243.16c-.96 1.68-1.32 2.36-1.73 3.02-3.08 4.97-4.8 10.68-9.52 14.8-3.26 2.85-5.09 7.29-8.16 10.43-6.96 7.11-14.33 13.81-21.43 20.78-1.11 1.09-2.09 2.64-2.42 4.13-2.23 10.15-4.34 20.33-6.32 30.54-.44 2.27-.08 4.69-.31 7.02-.14 1.43-.68 2.82-1.05 4.22-.35-.05-.7-.1-1.06-.14-.09-.78-.26-1.56-.25-2.34.08-4.81-.17-9.67.42-14.42.58-4.66-2.12-9.04-.54-13.77.61-1.84-1.7-2.91-3.7-1.8-1.73.96-3.39 2.06-5.23 3.18-1.54-2.82-1.34-5.13 1.06-6.72 6.51-4.32 10-9.91 10.47-18.06.59-10.04 2.36-19.99.01-30.03-.4-1.69-.31-3.56-.08-5.3 1.26-9.59.52-19.13.23-28.74-.41-13.25.82-26.54 1.37-39.82.06-1.33.41-2.66.51-3.99.2-2.53 1.63-3.75 4.05-4.14 12.1-1.96 24.19-4.01 36.31-5.91 3.22-.51 4.72-2.1 4.7-5.35-.08-11.51-.31-23.03-.06-34.53.18-8.14 1.03-16.26 1.61-24.38.09-1.33.29-2.65.51-4.63-2.1.2-4.04.02-5.69.62-6.66 2.41-13.72 3.67-19.88 7.64-2.68 1.73-6.45 1.66-9.54 2.88-2.5.98-4.8 2.56-7.05 4.07-2.3 1.54-4.23 3.77-6.7 4.87-3.35 1.5-4.25 3.89-4.28 7.15-.02 2.28.41 4.82-2.69 6.23-3.7-9.4-5.84-18.82-2.45-28.69.4-1.15 1.9-1.92 3.29-3.25 1.23 2.57 2.16 4.56 3.13 6.54 1.64 3.32 2.69 3.21 5.83 1.48 4.56-2.51 9.45-4.44 14.25-6.49 4-1.71 8.2-3 12.04-5 1.28-.67 2.49-3.02 2.4-4.52-.47-7.91-1.48-15.78-2.05-23.68-.22-3.03-2.21-4.55-4.3-3.6-8.22 3.74-16.11.36-24.06-.55-7.45-.85-7.94-.76-8.83 6.91-.18 1.55-.21 3.19-.76 4.61-.47 1.22-1.59 2.19-2.42 3.27-.33-.15-.66-.31-1-.46-.32-3.42-.67-6.83-.96-10.25-.33-3.79-.39-7.62-.97-11.37-.54-3.44 1.1-5.44 3.58-7.25.34.31.69.49.81.76 3.45 8.39 11.07 9.92 18.55 9.92 7.62.01 15.25-1.65 22.85-2.76 2.74-.4 5.41-1.32 8.12-2 .65-.16 1.37-.16 1.96-.45 12.59-6.18 25.25-12.27 36.29-21.07 1.65-1.31 2.62-3.52 3.8-5.38 1.04-1.64 4.48-2.71 5.9-1.5.49.42.51 1.67.39 2.49-.83 5.56-1.97 11.09-2.59 16.67-.47 4.29-.3 8.66-.45 12.99-.03.78-.54 1.71-.26 2.3 3.32 7.04-2.58 11.38-4.86 16.74-1.02 2.4-2.5 4.62-3.92 6.82-.46.72-1.34 1.48-2.13 1.62-5.57.99-10.1 3.93-14.6 7.12-2.11 1.5-4.75 2.27-7.93 3.74.7 6.89 1.48 14.38 2.22 21.87.06.64.06 1.36-.16 1.95-2.15 5.62-1.24 11.47-.02 16.89.79 3.51.5 6.68.46 10.04-.06 5.32-.02 10.63.03 15.95.02 2.11.9 3.42 3.29 3.08.43-.06.98-.12 1.32.08 5.24 3.04 10.64.77 16.01.74 5.51-.03 11.06 1.13 16.54 2.09 1.95.34 2.39 2.19 2.35 4.24-.13 7.48-.81 15.06.1 22.43 1.47 11.91 2.55 23.75 1.85 35.76-.2 3.39.98 6.84 1.34 10.29 1.15 10.84 1.74 21.72 3.96 32.47.96 4.69.28 9.85-.38 14.7-1.04 7.55 2.16 13.15 6.35 19.04 4.68 6.59 8.22 14 12.08 21.15 1.04 1.92-.68 2.77-2.2 2.6-1.21-.14-2.59-.91-3.41-1.83-3.64-4.04-7.05-8.29-10.67-12.35-.77-.86-2.07-1.24-3.77-2.2-.62 20.59-2.1 40.26-8.35 60.16-.32-1.75-.59-2.59-.6-3.45-.21-10.48-.54-20.96-.5-31.43.03-8.38.57-16.76.79-25.14.09-3.45-.52-6.99 0-10.36 1.01-6.5-2.85-10.66-6.34-15.1-.68-.86-1.48-1.63-2.1-2.53-2.12-3.1-3.99-6.4-6.3-9.35-5.98-7.65-12.25-15.07-18.18-22.76-1.53-1.98-2.09-4.69-3.42-6.87-1.12-1.75-2.71-3.25-4.5-5.38zm-3.4-57.7c0-2.67.05-6.02-.04-9.37-.02-.77-.43-2.09-.87-2.19-2.92-.64-5.98-1.72-8.83-1.34-6.95.94-13.86 2.36-20.66 4.1-1.95.5-4.44 2.44-4.97 4.23-1.5 4.99-2.27 10.22-2.99 15.41-.25 1.79.33 3.76.86 5.55.21.72 1.36 1.7 2.02 1.65 4.01-.29 8.41.06 11.88-1.53 4.13-1.9 7.98-1.23 12.02-1.34 2.97-.08 5.97-.52 8.85-1.24.89-.22 1.9-1.81 2.03-2.87.43-3.43.48-6.91.7-11.06zm-8.65 52.38c-2.4.83-4.54 2.38-6.26 2.01-5-1.09-9.52.31-14.1 1.63-2.4.69-4.55 1.33-6.93-.43-1.52-1.12-3.06-.43-3.16 1.78-.41 9.81-.94 19.62-1.09 29.44-.05 3.33.9 6.68 1.43 10.29 1.11-.52 1.73-.75 2.28-1.08.76-.46 1.59-.89 2.18-1.53 7.01-7.62 14.22-15.08 20.83-23.03 2.79-3.35 4.48-7.67 6.34-11.71 1.27-2.77.63-5.47-1.52-7.37zm21.65-.96c-.24.47-.47.95-.71 1.42 3.89 5.93 7.6 11.99 11.7 17.77 3.81 5.37 8.09 10.41 12.04 15.68 2.28 3.05 4.34 6.27 6.41 9.3 5.64-3.84 5.07-8.26 3.2-12.97-.53-1.33-1.13-2.73-1.19-4.12-.33-7.37-.5-14.74-.7-22.12-.07-2.56.13-5.15-.15-7.69-.44-3.97-2.21-4.65-5.86-3.27-4.12 1.56-8.39 2.79-12.68 3.83-3.96.96-8.03 1.47-12.06 2.17zm-51.82-17.32c-.09 0-.17 0-.26 0 0 2.12-.12 4.25.02 6.37.58 8.52 1.37 9.28 10.4 8.48 6.3-.56 12.57-1.6 18.78-2.79 2.01-.38 5.05-1.55 5.47-2.99 1.49-5.08 2.56-10.41 2.82-15.7.21-4.2-3.32-5.92-7.41-4.99-2.31.53-4.82.2-7.24.18-2.33-.02-4.66-.29-6.98-.2-4.11.17-8.22.59-12.33.78-2.12.1-3.39.73-3.29 3.15.11 2.57.02 5.14.02 7.71zm44.72-44.16c0 5.6-.02 10.73 0 15.87.03 6.61.62 7.24 7.08 7.6l25.32 1.41c1.74.1 2.76-.48 2.69-2.46-.09-2.68-.02-5.37-.02-8.06 0-5.1 0-10.2 0-15.88-11.86 1.2-23.33-1.14-35.07 1.52zm.38 42.9c.26 2.38.54 5.26.88 8.13.2 1.72 1.07 2.41 2.95 2.26 9.59-.81 19.19-1.46 28.78-2.24 2.43-.2 4.2-1.13 4.22-4.09.03-3.45.55-6.91.5-10.36-.07-5.05-2.78-7.12-7.77-6.73-8.45.66-16.93 1.01-25.37 1.77-1.23.11-3 1.59-3.32 2.76-.68 2.55-.59 5.3-.87 8.5zm5.61-152.56c.7 5.19 1.29 10.41 2.2 15.56.14.81 1.86 2.09 2.6 1.94 6.27-1.31 11.96-3.88 13.57-10.77 1.03-4.39.96-9.04 1.38-13.57.44-4.77 1-9.53 1.27-14.3.07-1.27-.73-2.6-1.13-3.9-1.05.45-2.23.73-3.12 1.39-3.12 2.35-5.92 5.22-9.25 7.2-6.47 3.86-9.26 8.98-7.52 16.45zm-5.56 9.12c.06 0 .13-.01.19-.01-.2-4.46-.36-8.93-.62-13.39-.11-1.86-1.17-2.6-3.05-3.27-3.93-1.39-6.89.8-10.23 1.79-3.25.96-3.89 2.99-2.88 5.86 1.62 4.61 1.07 9.23.42 13.91-.34 2.42-.52 4.92-.27 7.34.4 3.87 1.81 4.88 5.56 4.17 2.84-.53 5.62-1.4 8.41-2.2 1.85-.53 2.59-1.8 2.52-3.79-.14-3.46-.05-6.94-.05-10.41z" fill="#010000"/></svg>