<svg enable-background="new 0 0 400 400" viewBox="0 0 400 400" xmlns="http://www.w3.org/2000/svg"><g fill="#fbfafa"><path d="m37.59 393.81c-.92.31-1.52.05-2-.78-.7-1.2-1.52-2.34-2.47-3.78v4.59c-.55.03-.95.05-1.41.07-.03-.37-.06-.64-.06-.91 0-1.91 0-3.81 0-5.7 1.13-.41 1.77-.03 2.29.91.62 1.11 1.38 2.14 2.31 3.19v-4.2h1.35v6.61z"/><path d="m12.94 393.88v-6.75c1.9.19 3.93-.54 5.37 1.29.8 1.01.78 2.88.03 3.97-1.37 1.97-3.4 1.51-5.4 1.49m1.45-1.22c2.04.12 2.92-.58 2.89-2.21-.03-1.51-.98-2.19-2.89-2z"/><path d="m11.81 393.87h-5.49c.68-2.18 2.47-3.48 3.51-5.45h-3.08v-1.21h5.29c-.71 2.13-2.44 3.48-3.47 5.51.86 0 1.63.04 2.39-.01.79-.05 1.14.21.85 1.16"/><path d="m39.33 393.86v-6.61h3.7v1.07h-2.22v1.52c.68.04 1.34.09 2.07.13v1.07c-.72.05-1.38.09-2.1.14v1.48h2.4v1.19h-3.85z"/><path d="m27.71 388.56c-1.15-.3-2.46-.61-3.1.64-.37.73-.41 1.93-.06 2.67.63 1.35 1.99.93 3.17.68.35.94-.01 1.32-.93 1.46-1.62.25-3.05-.27-3.76-1.48-.73-1.24-.6-3.03.31-4.17.88-1.11 2.71-1.7 4-1.16.32.13.44.74.65 1.12-.1.08-.19.16-.28.24"/><path d="m49.15 387.24v1.07c-.59.02-1.17.05-1.87.08v5.44h-1.48v-5.44h-1.85c-.05-.4-.08-.73-.13-1.15z"/><path d="m20.06 387.21h1.33v6.62h-1.33z"/><path d="m30.68 393.25c-.49.38-.8.79-1.05.76-.32-.05-.6-.45-.9-.7.26-.24.51-.64.8-.67.29-.04.62.3 1.15.61"/></g><path d="m33.79 236.32c3.55.55 6.97.94 10.32 1.69.87.2 1.59 1.45 2.19 2.35 7.35 10.96 14.72 21.91 21.93 32.96 1.23 1.89 2.5 2.42 4.65 2.15 10.98-1.4 21.99-2.61 32.96-4.08 1.07-.14 2.45-1.39 2.86-2.45 1.99-5.22 1.35-10.59.23-15.88-.99-4.7-1.94-9.45-3.48-13.98-3.63-10.74-3.57-21.64-2.7-32.78 1.44-18.4 2.38-36.85 3.33-55.29.06-1.18-1.4-3.04-2.6-3.58-11.02-4.9-22.06-9.76-33.25-14.23-5.9-2.35-12.12-3.87-18.18-5.81-1.96-.63-3.18-.09-3.87 1.89-2.23 6.42-4.95 12.71-6.69 19.26-2.19 8.25-5.76 15.39-13.28 21.24-1.14-6.89-2.51-13.23-3.17-19.64-1.63-15.94-2.43-31.92.19-47.85 1.43-8.7 4.19-16.9 9.86-24.26 1.62.53 3.38.88 4.93 1.65 3 1.49 6.28 2.75 8.75 4.9 18.76 16.35 41.28 25.47 64.19 33.9.73.27 1.49.52 2.16.91 4.58 2.68 9.13 2.8 13.97.5 1.25-.59 3.29-.35 4.64.25 7.46 3.3 14.83 6.8 22.2 10.31 1.64.78 2.81.9 4.52-.28 5.42-3.75 11.81-4.92 18.19-5.03 20.58-.33 40.68-3.68 60.66-8.41 3.93-.93 8.57.4 12.73 1.34 3.31.75 5.79.35 8.64-1.59 15.79-10.75 15.86-10.56 34.99-12.95 12.2-1.53 24.37-3.33 36.53-5.18 7.83-1.19 14.62-4.41 20.12-10.43 5.23-5.73 5.44-5.54 12.58-2.35 7.32 3.27 7.32 3.27 5.8 11.26-1.33 7.03-2.71 14.05-3.96 21.09-.45 2.52-.95 5.12-.77 7.64 1.51 21.14-2.29 41.51-7.5 61.9-2.57 10.06-6.66 18.54-13.48 26.3-6.7 7.62-12.12 16.35-18.5 24.28-7.3 9.09-15.92 16.92-27.13 20.69-7.01 2.36-14.55 3.16-21.87 4.59-8.97 1.75-18.23 2.57-26.89 5.3-31.33 9.88-63.38 16.32-95.7 21.72-5.72.95-11.31 1.05-16.96.13-3.01-.49-5.78-.3-8.11 1.91-.08.08-.19.12-.28.19-6.58 5.65-14.03 8.34-22.8 7.09-1.43-.2-3.08.4-4.5.96-16.53 6.51-33.05 13.03-49.52 19.7-2.54 1.03-3.79.86-5.22-1.72-7.18-12.9-11.82-26.56-12.58-41.34-.66-12.73-.94-25.49-1.36-38.23-.05-.75.11-1.52.23-2.71zm96.85 8.49c-1.26 7.3 2.68 13.29 7.81 18.74.71.75 2.13 1.25 3.17 1.18 5.13-.32 10.28-.62 15.35-1.39 9.49-1.44 18.5-4.18 26.02-10.64 1.99-1.71 2.08-3.06 1.21-5.36-7.52-19.75-8.29-39.29 1.12-58.87 3.41-7.09 6.05-14.72 7.86-22.38 2.35-9.92-1.12-14.95-11.18-16.1-9.4-1.07-18.96-.59-28.43-1.15-6.48-.38-12.13 1.15-16.9 5.54-.89.82-1.74 2.03-1.94 3.18-3 16.96-5.81 33.94-8.87 50.89-.51 2.81-.45 5.3.98 7.71 4.41 7.45 5.49 15.43 4.06 23.88-.21 1.31-.15 2.68-.26 4.77zm134.33-106.58c.53 1.27.92 2.28 1.38 3.27 5.42 11.77 10.88 23.52 16.21 35.33.7 1.56 1.27 3.47 1.05 5.11-1.43 10.5-3.33 20.94-4.61 31.46-.8 6.6-.88 13.3-1.1 19.95-.08 2.28 1.42 3.1 3.6 2.49 2.36-.66 4.81-1.13 7.05-2.09 15.33-6.53 27.07-17.59 37.53-30.18 7.45-8.96 11.78-18.91 9.64-30.93-.92-5.14 1.53-9.31 4.5-13.25 1.05-1.39 2.09-2.95 2.55-4.6 1.57-5.59 2.81-11.27 4.29-16.89 1.93-7.29.06-13.64-4.28-19.57-1.39-1.9-2.68-2.36-5.03-1.65-14.86 4.5-29.78 8.8-44.67 13.19-9.29 2.75-18.57 5.53-28.11 8.36zm-9.74 47.29c-.2-2.71-.24-7.99-1.04-13.16-1.38-8.98-4.59-17.11-13.16-21.8-6.71-3.67-7.33-3.59-13.11 1.43-2.33 2.02-5.33 3.92-6.47 6.55-7.11 16.5-13.98 33.11-20.53 49.83-3.71 9.47-4.54 19.27-1.14 29.18 3.45 10.08 5.2 11.58 15.6 11.07 9.18-.45 18.24-1.62 26.4-6.47 3.6-2.14 6.05-4.85 7.31-9.04 4.44-14.72 5.55-29.83 6.14-47.59z" fill="#010000"/></svg>